<svg width="35" height="35" viewBox="0 0 35 35" fill="none" xmlns="http://www.w3.org/2000/svg">
<path d="M0.533203 2.26281C0.239258 2.4132 0 2.81652 0 3.14464C0 3.48644 0.239258 3.87609 0.546875 4.03332C0.799805 4.1632 0.943359 4.17003 3.05566 4.17003H5.30469L7.77246 12.8243L10.2471 21.4786L10.0488 21.8751C9.70703 22.5519 9.55664 23.0851 9.55664 23.6525C9.55664 25.0743 10.4795 26.2638 11.8604 26.6261C12.1543 26.7013 12.6465 26.7286 13.6719 26.7355C14.9365 26.7423 15.0391 26.7491 14.7314 26.8243C14.1572 26.9679 13.7266 27.214 13.2891 27.6515C12.0791 28.8546 12.0791 30.7482 13.2959 31.9581C15.0596 33.7286 18.0469 32.7648 18.4707 30.2902C18.6348 29.3263 18.3203 28.3693 17.6025 27.6446C17.1719 27.214 16.625 26.8995 16.1123 26.797C15.9482 26.7696 17.9033 26.7423 20.6104 26.7423C24.5752 26.7423 25.334 26.756 25.0537 26.8243C24.4795 26.9679 24.0488 27.214 23.6113 27.6515C22.4014 28.8546 22.4014 30.755 23.6113 31.9581C25.3887 33.7286 28.3691 32.7648 28.793 30.2902C29.0596 28.7384 28.0342 27.2003 26.4893 26.8243C26.1953 26.7491 26.4141 26.7423 28.1162 26.7355C29.9482 26.7286 30.1055 26.7218 30.3516 26.5919C30.6592 26.4347 30.8984 26.045 30.8984 25.7032C30.8984 25.3614 30.6592 24.9718 30.3516 24.8146C30.085 24.6778 29.9688 24.6778 21.2461 24.6778C12.9678 24.6778 12.3936 24.671 12.168 24.5548C11.6143 24.2814 11.4775 23.6798 11.8057 23.003L11.9902 22.6271H21.0342C30.0029 22.6271 30.085 22.6271 30.3584 22.4903C30.5498 22.3878 30.6729 22.2648 30.7617 22.0597C30.9463 21.6769 35 7.43761 35 7.19835C35 6.91808 34.7266 6.49425 34.4531 6.3507C34.2275 6.22765 33.7422 6.22082 21.1162 6.22082H8.01855L7.56055 4.59386C6.99316 2.61828 6.9248 2.44738 6.53516 2.26281C6.25488 2.12609 6.13867 2.11925 3.51367 2.11925C0.936523 2.12609 0.772461 2.13293 0.533203 2.26281ZM32.5801 8.38781C32.5596 8.45617 31.7734 11.2247 30.8232 14.5402L29.1006 20.5763H20.6104H12.1201L10.3975 14.5402C9.44727 11.2247 8.66113 8.45617 8.64062 8.38781C8.60645 8.27843 9.20801 8.2716 20.6104 8.2716C32.0127 8.2716 32.6143 8.27843 32.5801 8.38781ZM15.9277 28.9161C16.2354 29.0734 16.4746 29.463 16.4746 29.8116C16.4746 30.3175 15.9551 30.8302 15.4424 30.8302C15.1279 30.8302 14.7041 30.5636 14.5537 30.2696C14.3008 29.7775 14.458 29.2374 14.9434 28.9435C15.2715 28.7452 15.5723 28.7384 15.9277 28.9161ZM26.25 28.9161C26.5576 29.0734 26.7969 29.463 26.7969 29.8116C26.7969 30.3175 26.2773 30.8302 25.7646 30.8302C25.4502 30.8302 25.0264 30.5636 24.876 30.2696C24.623 29.7775 24.7803 29.2374 25.2656 28.9435C25.5938 28.7452 25.8945 28.7384 26.25 28.9161Z" fill="white"/>
</svg>
